<?xml version="1.0" standalone="no"?>
<!DOCTYPE svg PUBLIC "-//W3C//DTD SVG 20010904//EN"
 "http://www.w3.org/TR/2001/REC-SVG-20010904/DTD/svg10.dtd">
<svg version="1.0" xmlns="http://www.w3.org/2000/svg"
 width="100.000000pt" height="100.000000pt" viewBox="0 0 100.000000 100.000000"
 preserveAspectRatio="xMidYMid meet">
<metadata>
Created by potrace 1.14, written by Peter Selinger 2001-2017
</metadata>
<g transform="translate(0.000000,100.000000) scale(0.100000,-0.100000)"
fill="#000000" stroke="none">
<path d="M205 898 c-11 -7 -15 -28 -14 -96 1 -48 -4 -107 -10 -130 -11 -38
-10 -47 4 -62 14 -16 17 -47 18 -207 2 -162 5 -193 20 -216 37 -57 51 -61 269
-62 220 -1 242 3 282 58 19 26 21 43 22 218 1 163 4 192 18 208 15 17 16 25 5
63 -6 23 -11 79 -11 123 1 44 -3 87 -8 95 -8 13 -52 15 -294 16 -157 0 -292
-4 -301 -8z"/>
<path d="M315 80 c-3 -5 -1 -10 4 -10 6 0 11 5 11 10 0 6 -2 10 -4 10 -3 0 -8
-4 -11 -10z"/>
<path d="M373 77 c-3 -7 -3 -9 1 -5 5 4 19 3 33 -3 13 -5 22 -5 19 0 -9 15
-46 20 -53 8z"/>
<path d="M526 81 c-19 -7 -19 -8 0 -13 13 -3 21 0 21 8 0 8 -1 14 -1 13 -1 0
-10 -4 -20 -8z"/>
<path d="M267 50 c3 -11 9 -22 13 -25 5 -3 6 4 3 15 -3 11 -9 22 -13 25 -5 3
-6 -4 -3 -15z"/>
<path d="M355 61 c6 -11 4 -13 -9 -8 -9 4 -15 3 -11 -2 3 -5 -1 -12 -7 -14
-10 -4 -10 -6 0 -6 7 -1 10 -6 6 -13 -4 -7 -3 -8 5 -4 6 4 8 12 5 18 -5 7 -2
9 8 5 17 -6 19 16 3 30 -4 5 -5 2 0 -6z"/>
<path d="M477 57 c4 -6 -1 -8 -11 -4 -11 5 -15 3 -10 -5 5 -7 2 -9 -8 -5 -17
6 -19 -16 -3 -30 4 -5 5 -2 0 6 -6 11 -4 13 11 7 10 -4 15 -4 12 0 -4 3 2 14
14 24 17 13 18 17 5 17 -9 0 -13 -5 -10 -10z"/>
<path d="M594 38 c-1 -15 3 -28 9 -28 6 0 8 3 4 6 -3 3 -2 16 3 28 6 16 5 23
-3 23 -7 0 -12 -13 -13 -29z"/>
<path d="M730 66 c0 -2 7 -7 16 -10 8 -3 12 -2 9 4 -6 10 -25 14 -25 6z"/>
<path d="M770 65 c0 -5 5 -17 10 -25 5 -8 10 -10 10 -5 0 6 -5 17 -10 25 -5 8
-10 11 -10 5z"/>
<path d="M217 43 c6 -16 8 -16 21 0 8 10 6 13 -7 13 -11 0 -17 -6 -14 -13z"/>
<path d="M555 49 c-4 -6 -5 -12 -2 -15 2 -3 7 2 10 11 7 17 1 20 -8 4z"/>
<path d="M629 23 c-13 -16 -12 -17 4 -4 16 13 21 21 13 21 -2 0 -10 -8 -17
-17z"/>
<path d="M656 23 c-6 -14 -5 -15 5 -6 7 7 10 15 7 18 -3 3 -9 -2 -12 -12z"/>
<path d="M387 19 c7 -7 15 -10 18 -7 3 3 -2 9 -12 12 -14 6 -15 5 -6 -5z"/>
<path d="M560 20 c-9 -6 -10 -10 -3 -10 6 0 15 5 18 10 8 12 4 12 -15 0z"/>
</g>
</svg>
