<?xml version="1.0" standalone="no"?>
<!DOCTYPE svg PUBLIC "-//W3C//DTD SVG 20010904//EN"
 "http://www.w3.org/TR/2001/REC-SVG-20010904/DTD/svg10.dtd">
<svg version="1.0" xmlns="http://www.w3.org/2000/svg"
 width="88.000000pt" height="88.000000pt" viewBox="0 0 88.000000 88.000000"
 preserveAspectRatio="xMidYMid meet">
<metadata>
Created by potrace 1.14, written by Peter Selinger 2001-2017
</metadata>
<g transform="translate(0.000000,88.000000) scale(0.100000,-0.100000)"
fill="#000000" stroke="none">
<path d="M323 835 c-54 -23 -94 -86 -89 -137 2 -19 -4 -28 -27 -38 -16 -7 -35
-26 -42 -44 -28 -66 11 -125 89 -133 42 -5 45 -7 40 -29 -9 -34 19 -31 35 4
25 53 49 142 40 148 -15 9 -27 -4 -40 -44 -15 -45 -22 -51 -66 -46 -87 8 -100
100 -18 122 28 8 30 11 27 50 -8 92 75 150 156 108 30 -16 72 -82 72 -114 0
-29 17 -36 29 -14 6 11 9 21 7 23 -2 2 -6 16 -10 32 -8 33 10 36 45 9 16 -14
22 -28 21 -55 -1 -30 2 -37 17 -37 30 0 64 -33 64 -63 0 -36 -24 -56 -71 -61
l-40 -4 14 40 c13 39 12 58 -6 58 -4 0 -20 -33 -35 -72 -15 -40 -31 -85 -37
-100 -10 -27 -5 -48 12 -48 4 0 16 20 26 45 15 41 20 45 51 45 18 0 48 6 67
14 67 28 72 121 9 161 -21 13 -32 28 -33 43 0 48 -61 89 -122 83 -10 -1 -18 2
-18 8 0 16 -72 55 -106 56 -18 1 -45 -4 -61 -10z"/>
<path d="M645 801 c-7 -12 12 -24 25 -16 11 7 4 25 -10 25 -5 0 -11 -4 -15 -9z"/>
<path d="M148 789 c-10 -5 -15 -16 -12 -23 9 -23 33 -27 44 -7 13 25 -8 44
-32 30z"/>
<path d="M745 750 c-3 -6 1 -13 10 -16 19 -8 30 0 20 15 -8 14 -22 14 -30 1z"/>
<path d="M57 653 c-12 -11 -8 -23 8 -23 8 0 15 7 15 15 0 16 -12 20 -23 8z"/>
<path d="M395 600 c-8 -13 4 -32 16 -25 12 8 12 35 0 35 -6 0 -13 -4 -16 -10z"/>
<path d="M453 598 c-32 -40 -53 -172 -23 -142 11 11 50 121 50 141 0 16 -14
17 -27 1z"/>
<path d="M756 565 c-20 -21 -5 -55 25 -55 24 0 36 27 22 48 -14 23 -29 25 -47
7z"/>
<path d="M371 528 c-15 -42 -14 -58 3 -58 8 0 19 14 25 31 14 41 14 46 -3 52
-10 4 -18 -5 -25 -25z"/>
<path d="M477 533 c-11 -19 -17 -72 -9 -77 14 -8 31 15 38 52 5 25 3 32 -9 32
-9 0 -18 -3 -20 -7z"/>
<path d="M110 520 c-12 -7 -12 -12 -3 -21 15 -15 26 -7 21 15 -2 11 -7 13 -18
6z"/>
<path d="M392 427 c-7 -8 -15 -28 -18 -45 -9 -47 21 -43 36 4 13 40 2 65 -18
41z"/>
<path d="M440 415 c-17 -45 7 -58 30 -15 7 13 6 21 -5 30 -12 10 -16 7 -25
-15z"/>
<path d="M326 404 c-10 -26 -7 -44 8 -44 14 0 26 21 26 46 0 19 -26 18 -34 -2z"/>
<path d="M174 375 c-4 -9 -2 -21 4 -27 15 -15 44 -1 40 19 -4 23 -36 29 -44 8z"/>
<path d="M70 355 c0 -8 7 -15 15 -15 8 0 15 7 15 15 0 8 -7 15 -15 15 -8 0
-15 -7 -15 -15z"/>
<path d="M356 331 c-3 -5 1 -14 8 -20 16 -13 32 2 21 19 -8 12 -22 13 -29 1z"/>
<path d="M229 269 c-27 -39 -29 -84 -4 -103 11 -8 20 -26 21 -40 l1 -26 -84 0
c-54 0 -82 -4 -78 -10 6 -9 -1 -13 -44 -26 -10 -3 -10 -8 -2 -18 9 -11 84 -13
399 -12 213 0 393 5 400 9 18 12 5 27 -25 27 -18 0 -24 4 -19 15 4 13 -7 15
-69 15 -72 0 -75 1 -75 23 0 13 9 32 20 42 28 26 25 65 -9 105 l-29 35 -20
-25 c-12 -14 -26 -37 -31 -52 -8 -23 -6 -32 15 -57 13 -16 24 -38 24 -50 0
-20 -5 -21 -78 -21 l-79 0 5 30 c2 17 8 30 12 30 4 0 13 14 19 31 9 27 7 36
-17 70 -15 21 -31 37 -37 35 -16 -4 -55 -67 -55 -87 0 -11 9 -28 20 -39 11
-11 20 -31 20 -45 0 -24 -2 -25 -75 -25 l-75 0 0 30 c0 17 4 30 10 30 15 0 32
40 26 64 -6 23 -46 76 -58 76 -4 0 -17 -14 -29 -31z"/>
</g>
</svg>
